<?xml version="1.0" standalone="no"?>
<!DOCTYPE svg PUBLIC "-//W3C//DTD SVG 20010904//EN"
 "http://www.w3.org/TR/2001/REC-SVG-20010904/DTD/svg10.dtd">
<svg version="1.0" xmlns="http://www.w3.org/2000/svg"
 width="240.000000pt" height="240.000000pt" viewBox="0 0 240.000000 240.000000"
 preserveAspectRatio="xMidYMid meet">

<g transform="translate(0.000000,240.000000) scale(0.100000,-0.100000)"
fill="#000000" stroke="none">
<path d="M1035 2294 c-377 -40 -677 -141 -972 -330 l-62 -39 27 -42 28 -42 64
41 c656 415 1463 424 2123 22 49 -30 92 -54 97 -54 5 0 21 17 35 37 l25 37
-63 40 c-251 161 -529 266 -818 311 -101 15 -404 27 -484 19z"/>
<path d="M1050 1844 c-14 -2 -70 -11 -125 -20 -189 -30 -423 -121 -589 -230
l-74 -48 26 -38 c15 -21 31 -38 35 -38 4 0 34 17 65 39 137 93 329 171 525
213 84 18 134 22 287 22 153 0 203 -4 287 -22 196 -42 388 -120 525 -213 31
-22 61 -39 65 -39 9 0 53 61 53 73 0 13 -152 107 -240 149 -112 53 -292 112
-410 133 -90 16 -376 29 -430 19z"/>
<path d="M1045 1340 c-147 -23 -299 -79 -423 -156 l-72 -46 17 -30 c32 -53 37
-53 105 -11 87 54 187 96 293 124 129 34 341 34 470 0 106 -28 206 -70 293
-124 68 -42 73 -42 105 11 l17 30 -75 47 c-164 102 -339 154 -540 160 -71 2
-157 0 -190 -5z"/>
<path d="M1092 839 c-65 -11 -186 -60 -226 -92 l-29 -23 24 -37 c28 -43 32
-44 69 -17 137 98 386 100 532 4 21 -13 41 -24 45 -24 5 0 19 17 32 37 l24 37
-29 23 c-42 34 -160 80 -235 92 -74 12 -132 12 -207 0z"/>
<path d="M1128 379 c-43 -22 -78 -81 -78 -129 0 -76 74 -150 150 -150 76 0
150 74 150 150 0 50 -35 107 -80 130 -49 25 -94 25 -142 -1z"/>
</g>
</svg>
