<?xml version="1.0" standalone="no"?>
<!DOCTYPE svg PUBLIC "-//W3C//DTD SVG 20010904//EN"
 "http://www.w3.org/TR/2001/REC-SVG-20010904/DTD/svg10.dtd">
<svg version="1.0" xmlns="http://www.w3.org/2000/svg"
 width="375.000000pt" height="500.000000pt" viewBox="0 0 375.000000 500.000000"
 preserveAspectRatio="xMidYMid meet">
<metadata>
Created by potrace 1.15, written by Peter Selinger 2001-2017
</metadata>
<g transform="translate(0.000000,500.000000) scale(0.100000,-0.100000)"
fill="#000000" stroke="none">
<path d="M0 4918 c0 -74 1 -80 15 -62 8 10 15 27 15 36 0 9 3 24 6 33 6 14 11
12 35 -11 47 -45 34 -91 -36 -134 l-35 -22 0 -314 c0 -208 3 -313 10 -309 5 3
10 15 10 26 0 13 6 19 17 17 14 -2 17 3 15 21 -3 18 0 22 11 18 9 -3 18 -1 20
6 3 9 7 9 19 0 12 -10 17 -7 28 22 13 33 15 34 36 20 29 -19 40 -19 25 -2 -6
8 -8 17 -4 20 11 12 23 8 23 -8 0 -8 5 -15 10 -15 15 0 12 23 -5 46 -20 27
-19 37 5 31 11 -3 23 -1 26 4 3 5 10 9 15 9 6 0 3 -7 -5 -16 -17 -17 -22 -69
-7 -78 5 -4 7 2 5 11 -6 25 42 59 61 43 11 -9 12 -7 8 9 -3 12 -9 21 -14 21
-5 0 -9 6 -9 13 0 18 53 43 58 28 2 -6 10 -11 18 -11 8 0 17 -6 20 -13 2 -7
13 -13 24 -14 15 -1 20 5 20 22 0 13 3 30 6 38 3 9 -3 24 -13 34 -10 10 -24
27 -32 36 -12 16 -12 16 10 5 14 -7 38 -23 56 -35 33 -24 44 -28 42 -15 -1 4
-1 14 0 22 1 13 3 13 10 1 10 -16 49 -22 57 -9 3 4 11 8 17 8 8 0 8 -3 2 -8
-13 -9 -18 -52 -5 -52 5 0 12 5 15 11 4 6 14 8 22 5 10 -4 13 -1 9 12 -7 20
20 82 34 82 5 0 14 -9 20 -20 14 -27 29 -25 24 3 -2 12 -2 16 2 10 3 -7 11
-13 19 -13 7 0 18 -7 25 -15 16 -19 30 -19 30 -1 0 8 -11 23 -25 33 -19 14
-22 21 -14 33 8 12 12 12 16 2 10 -24 50 -62 67 -62 22 0 20 4 -10 37 -34 36
-58 72 -52 78 3 3 21 -5 40 -18 l35 -24 12 31 c12 28 13 29 21 11 12 -28 12
-43 0 -25 -11 17 -13 1 -4 -24 5 -12 11 -10 30 13 13 16 24 36 24 45 0 10 5
13 17 9 13 -5 15 -2 10 12 -6 15 -5 16 8 5 12 -10 19 -8 40 11 27 26 32 41 12
33 -8 -3 -20 2 -27 11 -11 13 -10 14 4 9 12 -5 15 -2 9 12 -5 13 -3 16 10 11
11 -4 17 -1 17 9 0 8 5 12 11 8 7 -4 7 1 -1 16 -6 12 -9 24 -6 27 3 3 8 -2 12
-11 10 -26 25 -18 18 10 -5 19 -4 25 5 20 14 -9 15 -53 1 -61 -5 -3 -10 -15
-10 -26 0 -24 28 -25 45 -2 13 18 35 10 35 -13 0 -8 -10 -28 -22 -44 -12 -16
-19 -33 -15 -37 4 -3 7 -1 7 6 0 7 5 9 13 5 6 -4 9 -4 5 1 -4 4 -1 17 7 29 8
11 15 30 15 42 0 22 -28 54 -48 54 -7 0 -12 7 -12 15 0 11 10 14 40 12 22 -2
40 -2 40 1 0 2 -23 29 -50 60 -27 31 -50 59 -50 63 0 12 63 -6 68 -20 3 -8 0
-11 -7 -7 -6 4 -11 4 -11 -1 0 -11 63 -63 69 -57 3 3 -1 9 -9 14 -7 5 -15 14
-17 22 -7 36 -7 43 2 46 6 1 10 -2 10 -8 0 -18 35 -50 54 -50 11 0 28 -13 38
-30 15 -26 19 -28 25 -13 11 29 9 43 -6 37 -8 -3 -17 -1 -21 5 -3 6 -17 11
-30 11 -28 0 -45 20 -18 21 13 1 11 3 -7 9 -14 4 -19 8 -11 9 11 1 10 5 -4 21
-10 11 -22 17 -28 13 -6 -4 -7 -1 -2 7 6 10 4 12 -9 7 -12 -5 -16 -3 -14 5 6
16 38 23 47 11 3 -4 15 -15 25 -23 18 -14 18 -13 12 8 -6 16 -3 22 8 22 9 0
16 4 16 9 0 5 9 11 20 14 11 3 20 10 20 16 0 8 -185 11 -645 11 l-645 0 0 -82z"/>
<path d="M1730 3563 c-105 -11 -177 -26 -204 -43 -97 -60 -90 -217 13 -266 34
-16 51 -16 280 2 30 2 102 0 160 -6 100 -9 108 -9 151 13 111 55 116 206 8
267 -55 31 -265 48 -408 33z"/>
<path d="M2488 3399 c-10 -5 -26 -9 -35 -7 -24 4 -73 -94 -73 -147 0 -44 26
-94 62 -119 13 -9 62 -40 110 -69 47 -29 121 -81 163 -117 126 -107 132 -110
193 -110 39 0 65 6 90 22 l36 22 -17 -24 c-22 -32 -22 -103 1 -138 31 -48 211
-221 252 -242 22 -11 87 -27 152 -36 62 -8 126 -22 142 -30 33 -16 44 -13 22
5 -8 7 -73 23 -144 36 -71 13 -142 29 -156 37 -15 8 -74 60 -131 117 -117 115
-136 151 -109 203 9 17 17 40 20 51 2 12 11 27 20 34 9 6 13 16 10 22 -4 6 0
21 9 35 14 22 14 27 -1 65 -9 23 -25 46 -35 52 -11 5 -17 14 -14 19 3 5 0 12
-6 16 -8 4 -9 3 -5 -4 16 -27 -10 -8 -77 54 -88 81 -199 160 -309 219 -84 45
-134 55 -170 34z"/>
<path d="M1030 3349 c-41 -22 -86 -49 -101 -60 -31 -22 -43 -24 -33 -6 4 7 3
9 -2 4 -5 -5 -9 -12 -9 -17 0 -15 -77 -70 -89 -63 -6 3 -8 3 -4 -2 4 -4 -24
-37 -63 -73 -81 -75 -99 -105 -99 -161 0 -76 40 -131 109 -152 62 -18 107 0
193 77 40 36 120 96 178 134 146 96 168 116 181 161 21 69 -9 132 -86 180 -47
29 -91 24 -175 -22z"/>
<path d="M1650 3169 c-13 -9 -12 -10 3 -5 19 6 23 -4 6 -21 -7 -7 -5 -15 7
-28 15 -14 15 -18 3 -26 -9 -5 -10 -9 -2 -9 16 0 44 -58 31 -62 -6 -2 4 -21
22 -42 30 -34 33 -43 31 -89 -1 -29 -6 -56 -10 -60 -4 -4 -6 6 -3 23 5 38 -25
123 -42 117 -7 -3 -28 2 -47 10 l-34 15 25 10 c24 10 24 10 5 18 -113 47 -437
-101 -604 -275 -60 -62 -61 -64 -61 -120 0 -88 37 -137 117 -156 53 -11 98 7
184 77 44 35 83 64 86 64 4 0 2 -5 -5 -12 -7 -7 -8 -17 -1 -30 6 -11 6 -18 0
-18 -5 0 -11 5 -13 12 -2 6 -9 9 -16 7 -14 -5 24 -52 50 -62 11 -4 15 -12 12
-22 -5 -13 -2 -15 19 -10 15 4 28 2 32 -5 5 -9 1 -10 -14 -5 -15 5 -19 3 -16
-8 3 -7 -15 -39 -41 -71 -92 -111 -67 -215 62 -267 l49 -19 -49 6 c-47 6 -48
6 -41 -17 10 -30 26 -41 42 -28 6 6 21 8 33 4 14 -4 20 -2 18 7 -2 7 7 14 20
16 26 4 30 22 5 22 -10 1 -3 7 16 16 19 8 52 30 73 50 60 54 120 76 218 81
103 6 166 -15 248 -82 70 -58 110 -71 168 -55 88 25 132 114 98 199 -22 55
-109 132 -201 178 -40 20 -73 38 -73 41 0 2 7 2 15 -2 9 -3 15 0 15 9 0 8 4
15 9 15 16 0 41 61 32 78 -5 8 -6 23 -4 33 3 11 -5 23 -24 34 l-28 16 30 -6
c61 -12 200 -90 287 -162 99 -80 117 -88 186 -80 38 4 53 12 84 46 34 36 38
46 38 91 0 84 -30 124 -179 238 -72 55 -254 145 -353 173 -66 20 -82 21 -117
11 -22 -7 -54 -24 -71 -38 -16 -14 -31 -21 -31 -15 -3 27 -20 64 -33 74 -7 5
-5 12 7 21 15 12 16 14 2 20 -8 3 -15 0 -15 -7 0 -8 -4 -6 -10 3 -5 8 -10 12
-10 7 0 -4 -29 13 -65 39 -46 32 -71 43 -85 39 -11 -4 -17 -11 -14 -17 3 -5
-8 -3 -24 6 -36 19 -33 19 -52 5z m163 -501 c16 -24 -10 -70 -37 -66 -15 2
-20 -2 -18 -14 2 -13 -8 -18 -45 -24 -26 -4 -60 -8 -75 -8 -16 -1 -28 -4 -28
-8 0 -5 -14 -8 -31 -8 -20 0 -29 4 -26 13 2 6 14 11 26 10 13 -2 21 3 21 12 0
8 3 14 8 13 13 -2 47 15 63 34 9 10 24 18 33 18 9 0 16 7 16 15 0 8 7 15 15
15 8 0 15 4 15 9 0 15 53 6 63 -11z"/>
<path d="M2224 2579 c-2 -4 0 -10 6 -14 19 -12 10 -22 -16 -17 -24 4 -25 3
-13 -16 7 -12 15 -19 17 -17 2 2 22 -7 43 -21 21 -13 42 -24 47 -24 4 0 14 -9
22 -19 7 -11 17 -18 22 -15 10 7 38 -20 38 -37 0 -7 3 -9 7 -6 3 4 14 -6 24
-23 20 -32 50 -32 42 0 -3 10 0 21 6 24 6 4 11 15 11 26 0 20 -26 34 -42 23
-6 -3 -9 -2 -6 3 3 5 -4 18 -15 28 -20 19 -20 19 -15 -2 4 -12 2 -20 -3 -16
-5 3 -9 19 -9 35 0 19 -6 32 -17 36 -10 3 -29 16 -43 28 -24 22 -97 38 -106
24z"/>
<path d="M1775 2054 c-53 -29 -85 -66 -91 -106 -10 -59 -26 -64 -60 -18 -30
41 -39 47 -49 30 -3 -5 -1 -10 6 -10 7 0 30 -19 52 -42 21 -24 36 -37 32 -30
-3 6 -1 12 4 12 6 0 11 -8 11 -17 0 -10 9 -33 20 -51 90 -148 325 -48 280 119
-6 23 -28 59 -48 80 -45 47 -107 60 -157 33z"/>
<path d="M1690 1756 c0 -8 10 -20 21 -27 17 -8 19 -13 9 -19 -17 -10 7 -50 59
-97 19 -18 31 -36 27 -40 -4 -4 -10 -3 -14 3 -4 6 -15 13 -24 17 -10 3 -18 12
-18 19 0 16 -36 49 -44 40 -3 -3 1 -14 11 -24 9 -10 14 -21 10 -24 -12 -12
-48 8 -57 32 -5 13 -17 24 -25 24 -9 0 -13 5 -10 10 3 6 -1 10 -9 10 -8 0 -18
-5 -21 -10 -4 -6 -10 -8 -15 -5 -4 3 -10 -5 -13 -17 -4 -13 -1 -26 6 -30 7 -4
8 -8 2 -8 -16 1 -45 26 -38 33 3 4 0 7 -8 7 -8 0 -30 16 -49 35 -19 19 -40 35
-47 35 -7 0 -10 7 -7 15 4 9 0 15 -10 15 -25 0 -20 -10 32 -64 27 -28 38 -45
27 -41 -11 5 -30 8 -43 8 -14 -1 -22 4 -19 11 6 16 -36 56 -65 61 -22 4 -21 3
6 -19 20 -17 25 -26 16 -31 -8 -5 -18 -1 -25 8 -16 22 -29 22 -21 0 4 -10 -5
-5 -19 11 -28 32 -67 49 -43 18 36 -46 44 -52 61 -52 13 0 17 -5 14 -15 -4 -8
-2 -17 4 -21 6 -3 14 -17 19 -30 5 -13 16 -24 25 -24 8 0 15 -3 15 -7 0 -5
-21 -9 -48 -10 -38 -2 -43 0 -24 7 29 12 28 16 -27 75 -38 42 -45 45 -58 32
-11 -11 -12 -19 -4 -35 9 -17 8 -19 -9 -15 -35 9 -22 -12 51 -82 39 -38 66
-71 60 -73 -5 -2 -24 11 -41 28 -17 18 -34 30 -36 27 -8 -8 20 -47 33 -47 7 0
13 -7 13 -15 0 -13 -3 -13 -20 -3 -11 7 -20 16 -20 21 0 11 -117 127 -129 127
-17 0 -13 -12 16 -44 24 -27 23 -26 -10 3 -20 19 -37 32 -37 28 0 -4 -9 1 -20
10 -11 10 -20 24 -19 33 0 10 3 9 9 -5 8 -19 9 -19 9 4 1 17 -3 22 -15 17 -9
-3 -18 -6 -20 -6 -13 0 -1 -38 17 -50 12 -8 25 -26 30 -39 5 -13 12 -21 16
-18 10 11 63 -26 63 -44 0 -9 9 -26 20 -39 22 -25 26 -40 11 -40 -5 0 -13 9
-16 20 -4 11 -11 17 -17 14 -7 -5 -9 -1 -5 9 4 11 1 17 -7 17 -7 0 -38 25 -70
55 -61 59 -86 69 -86 33 1 -23 1 -23 16 -3 13 18 14 17 8 -13 -5 -26 -3 -32
11 -32 11 0 15 -5 11 -15 -5 -14 4 -19 31 -16 7 1 21 -6 31 -16 49 -48 92 -83
101 -83 5 0 12 -6 14 -12 4 -10 6 -10 6 0 1 20 26 14 51 -12 16 -18 20 -30 15
-43 -5 -10 -8 -21 -7 -25 1 -4 -5 -5 -13 -2 -8 4 -15 10 -15 15 0 5 -15 18
-32 29 -18 11 -29 20 -24 20 9 0 -8 17 -74 73 -25 21 -35 25 -41 15 -6 -9 -12
-8 -27 5 -23 21 -33 22 -26 2 9 -22 -1 -18 -40 15 -20 18 -37 26 -41 20 -3 -5
-1 -10 5 -10 8 0 10 -9 6 -25 -6 -25 8 -36 17 -12 3 6 10 -2 17 -20 6 -18 20
-35 31 -38 26 -8 26 -39 0 -32 -15 3 -18 1 -14 -11 5 -11 2 -14 -11 -9 -11 4
-5 -7 16 -33 27 -34 29 -42 17 -53 -7 -6 -11 -8 -7 -3 11 13 -47 56 -77 56
-20 0 -26 4 -21 16 3 8 2 12 -4 9 -6 -3 -13 1 -16 9 -9 23 -24 19 -24 -6 0
-12 3 -18 6 -15 4 3 15 -5 26 -18 11 -14 25 -25 33 -25 7 0 15 -6 18 -13 3 -8
-3 -13 -14 -13 -11 0 -22 8 -25 18 -7 24 -24 23 -24 -2 0 -26 -15 -25 -34 2
-9 12 -16 19 -16 14 0 -11 66 -90 124 -148 27 -26 46 -51 42 -55 -3 -4 -22 9
-41 28 -60 59 -71 66 -102 66 -28 0 -29 -2 -16 -15 10 -10 13 -27 10 -46 -5
-28 5 -42 109 -151 124 -131 156 -181 45 -71 -38 38 -74 65 -80 62 -5 -4 -18
8 -27 26 -9 18 -26 41 -37 50 -24 21 -34 24 -19 5 6 -7 9 -23 5 -35 l-6 -23
-14 21 c-8 12 -21 19 -29 16 -9 -3 -14 2 -14 14 0 21 -24 27 -35 10 -3 -5 0
-7 9 -4 9 4 14 0 12 -10 -3 -19 -16 -34 -16 -17 0 7 -5 9 -10 6 -6 -3 -22 3
-37 14 -38 30 -39 19 -3 -18 18 -17 36 -28 42 -25 6 4 8 -1 3 -15 -5 -17 -2
-21 14 -21 14 0 21 -6 20 -17 0 -11 -3 -13 -6 -5 -2 6 -14 12 -26 12 -20 -1
-21 -2 -4 -14 16 -13 24 -36 11 -36 -12 0 -43 45 -44 63 0 9 -5 17 -11 17 -6
0 -9 -7 -6 -14 4 -11 1 -13 -11 -9 -15 6 -15 5 -3 -10 12 -15 12 -19 -3 -30
-16 -12 -14 -17 18 -59 20 -26 36 -53 36 -60 0 -8 -5 -6 -11 4 -5 10 -17 18
-24 18 -8 0 -15 6 -15 13 0 8 -12 20 -27 28 -16 7 -36 22 -47 32 -26 26 -32
13 -7 -14 12 -13 21 -25 22 -28 0 -3 2 -16 3 -28 2 -13 12 -31 24 -41 12 -11
19 -22 16 -25 -4 -3 -15 4 -24 16 -21 26 -27 22 -36 -21 -6 -28 -4 -32 14 -32
11 0 23 -7 26 -16 10 -26 7 -26 -20 -5 -37 29 -53 26 -25 -3 13 -14 20 -30 16
-36 -4 -6 -1 -17 5 -25 10 -12 9 -15 -4 -15 -9 0 -16 4 -16 9 0 5 -8 17 -17
27 -13 13 -14 19 -5 22 15 5 -16 62 -34 62 -7 0 -10 9 -7 23 5 20 4 21 -11 6
-17 -15 -16 -18 8 -44 14 -15 26 -33 26 -38 0 -6 -10 0 -22 13 -20 22 -23 22
-26 6 -2 -9 5 -24 15 -31 17 -14 17 -14 0 -15 -14 0 -16 -5 -11 -25 4 -15 2
-25 -5 -25 -6 0 -11 5 -11 10 0 6 -5 10 -11 10 -8 0 -10 -14 -6 -40 3 -24 1
-40 -5 -40 -6 0 -8 -7 -4 -15 3 -9 0 -15 -9 -15 -18 0 -19 12 -3 28 13 13 5
27 -11 17 -17 -10 -14 -65 4 -65 8 0 19 -9 25 -20 8 -15 6 -21 -10 -30 -11 -6
-20 -18 -20 -28 0 -9 -10 -22 -22 -27 -13 -6 -23 -19 -23 -29 0 -17 -9 -20
-62 -23 -48 -3 -77 -12 -125 -38 -35 -19 -83 -44 -108 -55 -57 -27 -160 -150
-160 -192 l0 -28 725 0 c464 0 725 4 725 10 0 6 9 10 20 10 11 0 20 -4 20 -10
0 -5 5 -10 10 -10 6 0 10 9 10 20 0 11 -4 20 -9 20 -5 0 -16 12 -26 26 -14 22
-15 28 -4 35 13 8 5 13 -14 10 -5 -1 -6 3 -2 9 11 18 34 -8 28 -30 -3 -11 0
-20 6 -20 6 0 11 5 11 11 0 5 4 8 10 4 5 -3 8 -11 6 -18 -1 -7 -1 -9 1 -5 2 4
10 5 18 2 20 -8 28 13 7 21 -15 6 -14 8 6 16 26 10 30 46 5 64 -11 8 -13 14
-4 19 6 4 14 0 17 -8 3 -9 11 -16 17 -16 6 0 19 -7 29 -17 11 -9 18 -11 18 -5
0 7 -4 12 -10 12 -5 0 -10 9 -10 19 0 11 -4 23 -10 26 -5 3 -10 11 -10 17 0 6
10 -1 23 -15 25 -29 53 -37 43 -12 -3 9 0 15 10 15 9 0 14 6 12 13 -3 6 -13
12 -24 12 -12 0 -22 10 -26 24 -9 32 -3 38 17 17 9 -9 24 -16 33 -16 14 0 14
2 3 9 -8 5 -12 18 -9 29 4 15 2 19 -8 15 -8 -3 -14 1 -14 11 0 9 -5 15 -11 13
-6 -1 -18 9 -27 23 -10 17 -11 21 -2 12 8 -6 18 -12 24 -12 5 0 -1 8 -12 19
-12 10 -22 21 -22 25 0 11 28 6 34 -6 3 -7 3 -3 0 10 -7 30 22 30 31 0 9 -30
75 -90 92 -84 8 3 12 -2 10 -16 -1 -11 5 -23 13 -25 13 -4 13 -3 0 6 -8 5 -11
13 -8 16 11 11 28 -5 28 -25 0 -10 7 -21 16 -24 8 -3 13 -10 10 -15 -3 -5 1
-11 8 -14 12 -5 13 -12 3 -39 -7 -18 -17 -37 -23 -43 -16 -14 -104 -125 -104
-130 0 -3 249 -5 553 -5 l552 0 -29 25 c-20 17 -24 25 -13 25 9 0 19 -4 22
-10 3 -5 11 -10 16 -10 6 0 8 4 5 9 -8 13 20 45 33 37 8 -5 8 -13 1 -26 -27
-50 -28 -50 235 -50 135 1 245 4 245 8 0 5 -16 14 -35 22 -24 9 -32 17 -25 24
14 14 12 26 -4 26 -19 0 -31 19 -19 31 6 6 15 4 23 -6 14 -17 40 -20 40 -6 0
14 -20 24 -50 27 -59 7 -71 13 -65 37 9 33 -26 63 -54 47 -25 -13 -26 -23 -5
-45 9 -9 14 -18 12 -20 -3 -3 -15 7 -29 21 -16 18 -20 28 -11 31 6 3 12 11 12
19 0 8 7 14 15 14 8 0 15 5 15 10 0 6 -6 10 -13 10 -7 0 -18 14 -24 31 -10 26
-14 29 -32 20 -16 -9 -22 -8 -31 8 -5 11 -10 27 -10 35 0 9 -7 16 -15 16 -21
0 -19 46 3 60 12 8 14 13 4 16 -7 3 -19 19 -27 35 -9 16 -20 29 -27 29 -6 0
-18 8 -27 18 -24 26 -73 56 -101 62 -19 4 -24 11 -22 28 2 13 -3 25 -12 28 -9
3 -16 14 -16 24 0 10 -7 23 -16 31 -13 11 -14 9 -9 -14 4 -16 3 -27 -3 -27
-11 0 -22 47 -22 92 0 16 -6 36 -12 45 -23 28 -87 93 -93 93 -12 0 -4 -28 10
-34 8 -3 20 -16 26 -30 6 -13 19 -26 28 -29 11 -2 17 -16 18 -38 2 -33 2 -34
-10 -9 -7 14 -24 39 -39 55 -15 17 -42 47 -61 68 -27 31 -35 36 -40 23 -8 -20
-37 -10 -37 14 0 35 64 34 75 -1 6 -19 25 -27 25 -10 0 10 39 3 56 -10 6 -5
14 -6 18 -2 12 12 86 14 86 2 0 -8 5 -7 15 1 12 10 19 10 27 2 17 -17 38 -15
38 2 0 18 -54 71 -93 92 -25 13 -32 13 -76 -7 -28 -11 -55 -18 -60 -14 -6 3
-8 0 -5 -8 8 -22 -10 -28 -39 -14 -16 7 -29 23 -33 40 -3 15 -12 27 -21 27
-12 0 -13 -3 -3 -14 6 -8 10 -24 8 -35 -3 -18 -8 -16 -48 24 -25 24 -49 44
-55 44 -14 1 -38 -53 -25 -57 16 -6 11 -19 -9 -25 -13 -3 -28 4 -42 20 l-23
24 22 6 c12 3 22 10 22 15 0 6 -7 8 -15 4 -13 -4 -13 -2 -5 14 15 28 30 34 30
11 0 -12 5 -21 10 -21 16 0 12 46 -6 61 -12 10 -14 23 -10 50 4 25 2 42 -7 51
-26 26 -34 53 -28 95 4 31 9 40 19 34 7 -4 12 -12 11 -17 -4 -22 1 -38 10 -28
5 5 7 23 4 41 -5 28 -8 31 -35 27 -30 -3 -58 14 -58 35 0 6 -6 11 -13 11 -7 0
-20 9 -30 20 -14 17 -15 24 -5 41 11 17 10 23 -8 38 -17 13 -22 32 -26 89 -3
40 -8 76 -12 79 -4 4 -15 2 -26 -5 -12 -7 -21 -8 -25 -2 -3 6 1 10 9 10 9 0
16 5 16 10 0 6 -9 10 -20 10 -11 0 -20 -4 -20 -10 0 -5 -4 -10 -10 -10 -5 0
-7 6 -4 14 3 8 1 17 -5 21 -6 3 -11 1 -11 -6 0 -6 -8 -18 -17 -26 -15 -12 -15
-14 -2 -10 12 4 15 0 11 -19 -2 -13 1 -31 8 -39 17 -21 6 -29 -20 -15 -13 7
-19 17 -15 29 6 21 -30 62 -49 55 -18 -7 -76 64 -69 85 3 10 2 12 -4 5 -9 -13
-45 -15 -37 -2 3 4 -2 8 -11 8 -13 0 -14 -4 -5 -20 6 -11 16 -20 22 -20 14 0
37 -31 38 -49 0 -11 -3 -12 -11 -4 -6 6 -17 9 -23 7 -7 -3 -30 11 -53 31 -23
19 -61 42 -84 50 -52 19 -77 18 -29 0 19 -7 29 -14 21 -14 -11 -1 -9 -7 6 -23
24 -27 46 -68 40 -74 -2 -3 -39 30 -81 72 -44 44 -76 70 -76 60z m-80 -1116
c0 -5 -4 -10 -10 -10 -18 0 -11 -20 15 -44 16 -15 26 -38 30 -67 4 -24 8 -54
11 -65 3 -17 -2 -24 -24 -29 -52 -14 -85 -11 -88 8 -2 15 0 16 12 6 11 -9 14
-8 14 4 0 9 -9 21 -20 27 -11 6 -18 15 -14 21 3 5 0 16 -6 24 -8 10 -10 31 -6
62 5 34 4 44 -3 33 -12 -16 -14 -10 -5 13 3 9 17 13 40 11 18 -1 34 2 34 7 0
5 5 9 10 9 6 0 10 -4 10 -10z"/>
</g>
</svg>
